<svg width="4437.6" height="1e3" version="1.1" viewBox="0 0 4437.6 1e3" xmlns="http://www.w3.org/2000/svg">
 <rect width="4437.6" height="1e3" fill="#fff" opacity=".95" stroke-width="1.0198"/>
 <path d="m2223.4 269.87c-158.8 0-273.29 103.56-273.29 258.91 0 155.34 128.74 258.91 287.68 258.91 95.931 0 180.51-37.973 232.86-101.98l-110.03-63.576c-29.053 31.789-73.212 50.343-122.83 50.343-68.904 0-127.44-35.96-149.17-93.492h403.04c3.1575-16.11 5.0354-32.795 5.0354-50.342 0-155.2-114.35-258.76-273.29-258.76zm-135.93 208.56c17.978-57.39 67.173-93.492 135.93-93.492 68.894 0 118.09 36.103 135.93 93.492zm-32.505-366.79-398.57 690.42-398.71-690.42h149.44l249.13 431.51 249.12-431.51zm-1347.1-71.918 531.48 920.55h-1063zm2367.1 489.04c0 86.302 56.384 143.84 143.84 143.84 59.265 0 103.71-26.898 126.58-70.768l110.47 63.72c-45.742 76.233-131.46 122.12-237.04 122.12-158.94 0-273.28-103.56-273.28-258.91 0-155.34 114.49-258.91 273.28-258.91 105.58 0 191.16 45.884 237.04 122.12l-110.47 63.72c-22.867-43.87-67.311-70.768-126.58-70.768-87.305 0-143.84 57.535-143.84 143.84zm1186.4-417.12v661.65h-129.45v-661.65zm-489.04 158.22c-158.8 0-273.28 103.56-273.28 258.91s128.88 258.91 287.67 258.91c95.931 0 180.51-37.973 232.86-101.98l-110.03-63.576c-29.053 31.789-73.212 50.343-122.83 50.343-68.904 0-127.44-35.96-149.17-93.492h403.04c3.1575-16.11 5.0262-32.795 5.0262-50.342 0-155.2-114.34-258.76-273.28-258.76zm-135.93 208.56c17.988-57.39 67.035-93.492 135.93-93.492s118.09 36.103 135.93 93.492zm-733.99-194.18v139.38c-14.379-4.171-29.633-7.0478-46.028-7.0478-83.568 0-143.84 57.535-143.84 143.84v212.88h-129.45v-489.04h129.45v132.33c0-73.069 85.004-132.33 189.86-132.33z" stroke-width=".92055"/>
</svg>
